<svg width="77" height="63" viewBox="0 0 77 63" fill="none" xmlns="http://www.w3.org/2000/svg">
<g id="adobe-illustrator logo" clip-path="url(#clip0_461_210)">
<path id="Vector" d="M13.6354 4.00001H63.3646C65.1557 3.99859 66.9295 4.29359 68.5846 4.86811C70.2397 5.44264 71.7435 6.28542 73.01 7.34822C74.2765 8.41102 75.2809 9.67297 75.9655 11.0619C76.6502 12.4507 77.0017 13.9393 77 15.4423V55.5577C77.0017 57.0607 76.6502 58.5493 75.9655 59.9382C75.2809 61.327 74.2765 62.589 73.01 63.6518C71.7435 64.7146 70.2397 65.5574 68.5846 66.1319C66.9295 66.7064 65.1557 67.0014 63.3646 67H13.6354C11.8443 67.0014 10.0705 66.7064 8.41538 66.1319C6.76029 65.5574 5.25646 64.7146 3.98996 63.6518C2.72346 62.589 1.71915 61.327 1.0345 59.9382C0.349856 58.5493 -0.00168208 57.0607 6.05116e-06 55.5577V15.4423C-0.00168208 13.9393 0.349856 12.4507 1.0345 11.0619C1.71915 9.67297 2.72346 8.41102 3.98996 7.34822C5.25646 6.28542 6.76029 5.44264 8.41538 4.86811C10.0705 4.29359 11.8443 3.99859 13.6354 4.00001Z" fill="#330000"/>
<path id="Vector_2" d="M37.3128 43.827H25.3778L22.9395 50.1539C22.9122 50.2693 22.8346 50.3719 22.7218 50.4416C22.609 50.5114 22.4692 50.5432 22.3299 50.5309H16.2982C15.9453 50.5309 15.8491 50.3693 15.9453 50.0463L26.2761 25.0886C26.3724 24.8193 26.4686 24.5232 26.597 24.2001C26.7261 23.6231 26.7905 23.0372 26.7895 22.4501C26.7799 22.3827 26.801 22.3147 26.8486 22.2598C26.8962 22.2049 26.9667 22.1671 27.0461 22.154H35.3557C35.6124 22.154 35.7407 22.2347 35.7728 22.3693L47.4832 50.1001C47.5795 50.3963 47.4832 50.5309 47.1624 50.5309H40.457C40.3436 50.54 40.2299 50.5154 40.1361 50.4612C40.0422 50.4071 39.974 50.3269 39.9436 50.2347L37.3128 43.827ZM27.2386 38.3616H35.3878C35.1953 37.7963 34.9386 37.1232 34.6499 36.4232C34.3611 35.7232 34.0724 34.9155 33.7836 34.1078C33.4949 33.3001 33.1741 32.4655 32.8532 31.6309C32.5324 30.7963 32.2436 30.0155 31.987 29.2347C31.7303 28.454 31.5057 27.7809 31.2811 27.1347H31.217C30.9286 28.3081 30.5645 29.4676 30.1261 30.6078C29.6449 31.9001 29.1636 33.2463 28.6503 34.5924C28.2011 35.9655 27.7199 37.2309 27.2386 38.3616ZM54.4774 26.7578C53.9508 26.7675 53.4271 26.6891 52.9369 26.5274C52.4467 26.3656 51.9997 26.1236 51.622 25.8155C50.8869 25.141 50.4954 24.2521 50.5311 23.3386C50.5122 22.8935 50.6053 22.45 50.8043 22.0372C51.0033 21.6243 51.3038 21.2513 51.6861 20.9424C52.4573 20.3308 53.4805 19.9931 54.5416 20.0001C55.7928 20.0001 56.7553 20.3232 57.4611 20.9424C58.1719 21.5952 58.5517 22.4547 58.5199 23.3386C58.5395 23.7935 58.4502 24.247 58.2573 24.6724C58.0644 25.0979 57.7719 25.4865 57.397 25.8155C57.0189 26.1386 56.5627 26.3899 56.059 26.5525C55.5554 26.7151 55.016 26.7851 54.4774 26.7578ZM50.8841 50.127V29.3963C50.8841 29.127 51.0124 29.0193 51.3011 29.0193H57.6536C57.9424 29.0193 58.0707 29.154 58.0707 29.3963V50.127C58.0707 50.4232 57.9424 50.5578 57.6536 50.5578H51.3653C51.2979 50.5625 51.2301 50.5543 51.1669 50.5339C51.1038 50.5135 51.047 50.4814 51.0007 50.4399C50.9544 50.3985 50.9199 50.3489 50.8997 50.2947C50.8795 50.2405 50.8742 50.1832 50.8841 50.127Z" fill="#FF9A00"/>
</g>
<defs>
<clipPath id="clip0_461_210">
<rect width="77" height="63" fill="white"/>
</clipPath>
</defs>
</svg>
