<svg width="60" height="59" viewBox="0 0 60 59" fill="none" xmlns="http://www.w3.org/2000/svg">
<g id="Adobe logo" clip-path="url(#clip0_461_224)">
<path id="Vector" d="M10.625 3.5H49.375C55.25 3.5 60 8.20844 60 14.032V50.9561C60 56.7797 55.25 61.4881 49.375 61.4881H10.625C4.75 61.4881 0 56.7797 0 50.9561V14.032C0 8.20844 4.75 3.5 10.625 3.5Z" fill="#001E36"/>
<g id="Group">
<path id="Vector_2" d="M13.5 45.4212V19.9213C13.5 19.7478 13.575 19.6487 13.75 19.6487C14.175 19.6487 14.575 19.6487 15.15 19.6239C15.75 19.5991 16.375 19.5991 17.05 19.5743C17.725 19.5496 18.45 19.5496 19.225 19.5248C20 19.5 20.75 19.5 21.5 19.5C23.55 19.5 25.25 19.7478 26.65 20.2682C27.9 20.6895 29.05 21.3834 30 22.3003C30.8 23.0933 31.425 24.0597 31.825 25.1253C32.2 26.1662 32.4 27.2317 32.4 28.3469C32.4 30.4781 31.9 32.2376 30.9 33.6253C29.9 35.0131 28.5 36.0539 26.875 36.6486C25.175 37.2682 23.3 37.4912 21.25 37.4912C20.65 37.4912 20.25 37.4912 20 37.4664C19.75 37.4416 19.4 37.4416 18.925 37.4416V45.3964C18.95 45.5699 18.825 45.7186 18.65 45.7433H13.8C13.6 45.7433 13.5 45.6442 13.5 45.4212ZM18.95 24.4315V32.758C19.3 32.7827 19.625 32.8075 19.925 32.8075H21.25C22.225 32.8075 23.2 32.6588 24.125 32.3615C24.925 32.1384 25.625 31.6676 26.175 31.0481C26.7 30.4285 26.95 29.586 26.95 28.4956C26.975 27.7274 26.775 26.9592 26.375 26.2901C25.95 25.6457 25.35 25.1501 24.625 24.8775C23.7 24.5058 22.7 24.3571 21.675 24.3819C21.025 24.3819 20.45 24.3819 19.975 24.4067C19.475 24.3819 19.125 24.4067 18.95 24.4315ZM48 31.2463C47.25 30.8498 46.45 30.5772 45.6 30.4037C44.675 30.2055 43.75 30.0816 42.8 30.0816C42.3 30.0568 41.775 30.1312 41.3 30.2551C40.975 30.3294 40.7 30.5029 40.525 30.7507C40.4 30.9489 40.325 31.1967 40.325 31.4198C40.325 31.6428 40.425 31.8658 40.575 32.0641C40.8 32.3367 41.1 32.5597 41.425 32.7332C42 33.0306 42.6 33.3032 43.2 33.551C44.55 33.997 45.85 34.6166 47.05 35.36C47.875 35.8804 48.55 36.5743 49.025 37.4168C49.425 38.2098 49.625 39.0772 49.6 39.9693C49.625 41.134 49.275 42.2987 48.625 43.2652C47.925 44.2565 46.95 45.0247 45.825 45.4707C44.6 45.9911 43.1 46.2637 41.3 46.2637C40.15 46.2637 39.025 46.1646 37.9 45.9416C37.025 45.7929 36.15 45.5203 35.35 45.1486C35.175 45.0495 35.05 44.876 35.075 44.6777V40.3658C35.075 40.2915 35.1 40.1923 35.175 40.1428C35.25 40.0932 35.325 40.118 35.4 40.1676C36.375 40.7375 37.4 41.134 38.5 41.3818C39.45 41.6297 40.45 41.7536 41.45 41.7536C42.4 41.7536 43.075 41.6296 43.525 41.4066C43.925 41.2331 44.2 40.8119 44.2 40.3658C44.2 40.0189 44 39.6967 43.6 39.3746C43.2 39.0524 42.375 38.6807 41.15 38.2098C39.875 37.7638 38.7 37.169 37.6 36.4256C36.825 35.8804 36.175 35.1617 35.7 34.3192C35.3 33.5262 35.1 32.6588 35.125 31.7915C35.125 30.7259 35.425 29.7099 35.975 28.793C36.6 27.8017 37.525 27.0087 38.6 26.5131C39.775 25.9183 41.25 25.6457 43.025 25.6457C44.05 25.6457 45.1 25.7201 46.125 25.8688C46.875 25.9679 47.6 26.1662 48.275 26.4387C48.375 26.4635 48.475 26.5627 48.525 26.6618C48.55 26.7609 48.575 26.86 48.575 26.9592V30.9985C48.575 31.0976 48.525 31.1967 48.45 31.2463C48.225 31.2959 48.1 31.2959 48 31.2463Z" fill="#31A8FF"/>
</g>
</g>
<defs>
<clipPath id="clip0_461_224">
<rect width="60" height="58" fill="white" transform="translate(0 0.5)"/>
</clipPath>
</defs>
</svg>
