<svg width="73" height="65" viewBox="0 0 73 65" fill="none" xmlns="http://www.w3.org/2000/svg">
<g id="Adobe logo" clip-path="url(#clip0_461_228)">
<path id="rect4474-8-5-7-4" d="M57.5939 7H15.3964C8.55222 7 3.00391 11.9403 3.00391 18.0344V55.2941C3.00391 61.3883 8.55222 66.3285 15.3964 66.3285H57.5939C64.4381 66.3285 69.9864 61.3883 69.9864 55.2941V18.0344C69.9864 11.9403 64.4381 7 57.5939 7Z" fill="#001C24"/>
<path id="path7-4" d="M27.3477 23.632C27.3477 23.5307 27.5759 23.4583 27.7063 23.4583C28.7499 23.4147 30.2989 23.3859 31.9131 23.3859C36.4297 23.3859 38.1907 25.5872 38.1907 28.4113C38.1907 32.0898 35.1905 33.6683 31.5055 33.6683C30.8859 33.6683 30.6739 33.6391 30.2336 33.6391V39.2004C30.2336 39.3162 30.1847 39.3741 30.038 39.3741H27.5433C27.4128 39.3741 27.3477 39.3306 27.3477 39.2004V23.6317V23.632ZM30.25 31.3222C30.625 31.3508 30.9185 31.3508 31.5707 31.3508C33.4784 31.3508 35.272 30.7571 35.272 28.4544C35.272 26.6151 33.9839 25.6882 31.8153 25.6882C31.1631 25.6882 30.5434 25.7168 30.25 25.7318V31.322V31.3222ZM44.2726 29.5988C42.9845 29.5988 42.5443 30.1781 42.5443 30.656C42.5443 31.1774 42.8377 31.5395 44.5661 32.336C47.1261 33.4367 47.925 34.4939 47.925 36.0435C47.925 38.3607 45.9358 39.6062 43.2454 39.6062C41.8268 39.6062 40.6039 39.3455 39.9028 38.9835C39.7886 38.9399 39.7723 38.8676 39.7723 38.7517V36.6228C39.7723 36.478 39.8539 36.4345 39.968 36.507C40.9952 37.1007 42.1692 37.3614 43.2454 37.3614C44.5335 37.3614 45.0716 36.8835 45.0716 36.2317C45.0716 35.7104 44.6965 35.247 43.0497 34.4939C40.7343 33.5091 39.7723 32.5098 39.7723 30.8443C39.7723 28.9761 41.4192 27.4265 44.2726 27.4265C45.6749 27.4265 46.6532 27.6147 47.1913 27.8319C47.3218 27.9043 47.3543 28.0202 47.3543 28.1216V30.1057C47.3543 30.2215 47.2728 30.294 47.1098 30.2505C46.3923 29.845 45.3324 29.5988 44.2726 29.5988Z" fill="#03C7FC"/>
<path id="path813-1" d="M40.4078 55.4004C39.896 55.7763 39.178 56.1193 38.4946 56.3076C36.5262 56.8603 34.2833 56.4144 32.566 55.1283C32.3383 54.958 29.9411 52.7915 24.0841 47.4621C15.1304 39.3178 15.8328 39.978 15.3812 39.2819C14.7156 38.2555 14.3969 37.0351 14.4993 35.9107C14.581 34.9856 14.9138 34.1339 15.5115 33.3047C15.6751 33.0763 16.152 32.6415 23.773 25.7548C29.4688 20.6091 31.9543 18.3772 32.1786 18.213C33.1314 17.5106 34.2639 17.1077 35.5584 17.0153C36.9913 16.9123 38.5967 17.3337 39.811 18.1269C40.0696 18.298 40.8999 19.0426 48.4232 25.8706C55.7992 32.5649 56.7695 33.4546 56.9445 33.6724C57.5842 34.4892 57.9984 35.4283 58.1304 36.3794C58.3473 37.9388 57.8845 39.431 56.8205 40.6046C56.5157 40.9366 40.7733 55.1326 40.4078 55.4004ZM55.4245 39.8374C55.4391 39.8101 55.4844 39.769 55.5275 39.7445C55.5727 39.7224 55.6132 39.6815 55.6202 39.6561C55.6275 39.6308 55.6494 39.5871 55.6743 39.5598C55.8316 39.3846 56.0332 39.0316 56.0998 38.8241C56.1115 38.7897 56.1312 38.7528 56.1443 38.7415C56.1567 38.7305 56.1954 38.6196 56.2305 38.4973C56.2663 38.375 56.3067 38.2621 56.3218 38.2486C56.3393 38.233 56.3619 38.1264 56.3721 38.0127C56.3845 37.8969 56.4072 37.772 56.4218 37.7351C56.4386 37.6961 56.451 37.5802 56.4488 37.4825C56.4488 37.3826 56.4561 37.1923 56.4634 37.06C56.4729 36.9232 56.4707 36.8046 56.4488 36.7879C56.4327 36.7736 56.4189 36.7198 56.4123 36.6685C56.3977 36.4056 56.3882 36.3241 56.3648 36.3026C56.3517 36.2909 56.348 36.2603 56.3575 36.2351C56.3699 36.2098 56.3575 36.1236 56.324 36.0415C56.2911 35.9617 56.2524 35.8447 56.2326 35.7815C56.1991 35.6599 56.0171 35.1815 55.9272 34.9819C55.8973 34.9139 55.8196 34.7889 55.7584 34.7061C55.6949 34.621 55.6305 34.5219 55.6115 34.4866C55.5765 34.4137 55.4833 34.2884 55.322 34.1056C55.2636 34.0392 55.1921 33.9469 55.16 33.895C55.1038 33.7938 39.4685 19.6174 39.3016 19.5159C39.252 19.4847 39.1214 19.3977 39.0092 19.3277C38.9021 19.2578 38.7902 19.197 38.7643 19.1918C38.7388 19.1918 38.6372 19.1398 38.5433 19.082C38.3868 18.9854 37.7649 18.7661 37.486 18.7084C37.2821 18.6642 37.2071 18.646 37.132 18.6187C36.9868 18.5641 35.6323 18.5204 35.5771 18.5699C35.5698 18.5764 35.5106 18.5823 35.4489 18.5764C35.3868 18.5764 35.2848 18.5862 35.2261 18.6011C35.1648 18.618 35.0653 18.6414 35.0039 18.6492C34.789 18.6811 34.0549 18.8962 34.0047 18.9416C33.977 18.9663 33.9035 18.9994 33.8423 19.0166C33.7839 19.0316 33.7049 19.0693 33.6723 19.0986C33.6423 19.1259 33.5939 19.1454 33.5706 19.1382C33.5472 19.1382 33.5195 19.146 33.51 19.1649C33.4976 19.1857 33.4472 19.2214 33.3914 19.248C33.2898 19.2922 33.2013 19.3481 33.0198 19.4785C32.8987 19.5639 17.2894 33.6399 17.1769 33.7604C17.1346 33.8078 17.0674 33.8972 17.0303 33.9544C16.9931 34.0116 16.9508 34.0594 16.9354 34.0591C16.9223 34.0591 16.9077 34.0838 16.9033 34.1117C16.9033 34.1416 16.8646 34.2084 16.8223 34.2608C16.78 34.3135 16.7187 34.4256 16.6848 34.5085C16.6534 34.5937 16.6118 34.674 16.5969 34.6876C16.5692 34.7123 16.5473 34.7654 16.4954 34.9361C16.4787 34.994 16.4429 35.0975 16.4216 35.1644C16.3596 35.3441 16.2848 35.7396 16.3016 35.7958C16.3097 35.8218 16.3016 35.8608 16.2783 35.8789C16.2578 35.8971 16.2513 35.9315 16.2651 35.9576C16.279 35.9836 16.2775 36.146 16.2651 36.32C16.2513 36.4939 16.2505 36.6611 16.2651 36.6894C16.2921 36.7414 16.3075 36.8275 16.3155 37.053C16.3155 37.1135 16.3338 37.1743 16.3498 37.1886C16.3659 37.2029 16.3717 37.2354 16.3593 37.2608C16.3469 37.2862 16.3593 37.3584 16.379 37.4193C16.4038 37.4823 16.4425 37.5997 16.4679 37.6816C16.4927 37.7635 16.5645 37.9464 16.622 38.0896C16.6797 38.2326 16.748 38.3992 16.77 38.4555C16.8306 38.6103 16.9621 38.8388 16.9905 38.8418C17.0029 38.8418 17.0328 38.8801 17.0569 38.9293C17.0788 38.9761 17.1402 39.073 17.1933 39.1439C17.2488 39.2126 17.313 39.3025 17.3422 39.3426C17.3714 39.3829 17.4352 39.4634 17.483 39.5249C17.5945 39.6669 33.1982 53.8286 33.3601 53.9347C33.8982 54.2913 34.2523 54.4856 34.5374 54.5853C34.9442 54.7274 34.9985 54.7449 35.1225 54.7711C35.1948 54.7867 35.324 54.8225 35.4173 54.8524C35.5079 54.8804 35.6343 54.9038 35.7011 54.9057C35.7653 54.9057 35.8323 54.9155 35.8455 54.9278C35.8615 54.9421 35.9105 54.9454 35.9562 54.9376C36.0021 54.9291 36.0511 54.9311 36.0642 54.9447C36.0773 54.9564 36.3062 54.9688 36.5733 54.9707C37.2 54.9772 37.2437 54.9772 37.2612 54.959C37.2685 54.9525 37.4043 54.9298 37.5681 54.9103C37.8881 54.8693 37.9801 54.8524 38.1177 54.8095C38.3546 54.7338 38.4461 54.6988 38.7001 54.5887C38.85 54.525 38.9974 54.4633 39.0254 54.4523C39.0531 54.4412 39.094 54.4237 39.1092 54.4146C39.1267 54.4035 39.1471 54.3944 39.1573 54.3905C39.2209 54.371 39.4963 54.1848 39.5916 54.0941C39.6419 54.0486 39.6973 54.013 39.7129 54.018C39.7516 54.0258 55.3882 39.9111 55.4222 39.8375L55.4245 39.8374Z" fill="#C8EFFC"/>
<g id="layerbg7-8">
<path id="path813-0" d="M12.3801 67.8559C11.0236 67.7354 9.41789 67.3069 8.11277 66.7043C4.33673 64.9835 1.77049 61.5085 1.33057 57.518C1.27191 56.989 1.25724 50.8961 1.27924 35.9583C1.30857 13.1265 1.27191 14.9477 1.73383 13.3943C2.41572 11.1045 3.9188 8.98198 5.88381 7.52905C7.49687 6.33055 9.35923 5.55386 11.5735 5.14543C12.1821 5.03161 13.5825 5.02492 35.8648 5.00483C52.5161 4.99144 59.7602 5.00483 60.3541 5.05839C62.8837 5.27935 65.1933 6.14977 67.2389 7.66296C69.5046 9.33685 71.1763 11.9682 71.6749 14.6263C71.7775 15.1954 71.7922 17.2978 71.7922 36.4605C71.7922 55.2482 71.7775 57.7322 71.6822 58.2612C71.3009 60.223 70.3918 62.071 69.05 63.5775C66.8504 66.0481 63.7635 67.5613 60.3101 67.8626C59.3276 67.943 13.3479 67.943 12.3801 67.8559ZM59.5036 65.0103C59.5696 64.9902 59.7015 64.9902 59.8042 65.0103C59.9068 65.0371 60.0315 65.0304 60.0828 65.0036C60.1341 64.9768 60.2368 64.9434 60.3174 64.9367C60.8307 64.8898 61.6959 64.6487 62.1285 64.4412C62.2018 64.4077 62.2898 64.3809 62.3264 64.3809C62.3631 64.3809 62.5977 64.2738 62.847 64.1466C63.0963 64.0194 63.3383 63.9122 63.3823 63.9122C63.4336 63.9122 63.6389 63.7917 63.8368 63.6444C64.0421 63.4971 64.2768 63.3498 64.3574 63.3163C64.4454 63.2829 64.6507 63.1356 64.8047 62.9949C64.966 62.8543 65.2813 62.5932 65.5086 62.4191C65.7432 62.2383 65.9265 62.0643 65.9265 62.0174C65.9265 61.9772 65.9925 61.8835 66.0658 61.8031C66.4691 61.4148 66.5864 61.2876 66.5864 61.2273C66.5864 61.1938 66.6304 61.147 66.689 61.1269C66.7477 61.1068 66.865 60.9662 66.953 60.8122C67.0336 60.6582 67.1656 60.4439 67.2389 60.3301C67.3856 60.1159 67.8915 59.212 68.0821 58.8169C68.1481 58.683 68.2361 58.4085 68.2801 58.2143C68.3241 58.0135 68.3901 57.7925 68.4194 57.7189C68.4854 57.5716 68.5514 57.277 68.6101 56.815C68.6321 56.6476 68.676 56.4266 68.7127 56.3128C68.7934 56.0985 68.7714 16.2935 68.6907 15.9387C68.6687 15.8315 68.6174 15.5436 68.5661 15.3026C68.5221 15.0682 68.4561 14.8406 68.4267 14.8004C68.3901 14.7669 68.3241 14.5661 68.2801 14.3652C68.2068 14.0304 67.6495 12.9324 67.3343 12.4971C67.107 12.1758 67.0263 12.0552 66.9603 11.9213C66.8357 11.6602 64.922 9.87919 64.7607 9.87919C64.7387 9.87919 64.6434 9.81223 64.5627 9.72519C64.4747 9.64484 64.3061 9.53102 64.1961 9.47745C64.0788 9.42389 63.8955 9.33015 63.7929 9.26319C63.4263 9.03554 62.0038 8.40616 61.8572 8.40616C61.7765 8.40616 61.6152 8.3593 61.4979 8.30573C61.3879 8.25217 61.212 8.2053 61.1166 8.2053C61.0287 8.2053 60.926 8.17182 60.904 8.13165C60.8747 8.09817 60.816 8.07808 60.772 8.09147C60.7207 8.10486 60.5887 8.09147 60.4641 8.058C60.2441 7.99104 60.0241 7.95756 59.5476 7.91069C59.2323 7.87722 13.6412 7.87722 13.2819 7.904C13.1426 7.91739 12.9006 7.95756 12.754 7.99104C12.6074 8.02452 12.468 8.03791 12.4461 8.01782C12.4241 8.00443 12.3654 8.01782 12.3141 8.0513C12.2628 8.09147 12.1014 8.13835 11.9548 8.15843C11.8082 8.17852 11.5369 8.25886 11.3536 8.33251C11.1703 8.41286 10.9796 8.47312 10.9356 8.47312C10.855 8.47312 10.7377 8.51999 10.3857 8.69407C10.2684 8.75433 10.0485 8.85477 9.90914 8.92172C9.52787 9.09581 8.77999 9.5578 8.71401 9.65823C8.68468 9.7051 8.60403 9.74527 8.54537 9.74527C8.48671 9.74527 8.42072 9.78545 8.39873 9.83901C8.37673 9.89258 8.11277 10.1202 7.81216 10.3479C7.51154 10.5755 7.24025 10.8099 7.21826 10.8701C7.17426 10.9773 7.05695 11.1179 6.70501 11.4459C6.60969 11.533 6.53637 11.6401 6.53637 11.6803C6.53637 11.7205 6.49238 11.774 6.43372 11.7941C6.37506 11.8142 6.27241 11.928 6.20642 12.0418C6.14043 12.1624 6.00846 12.3766 5.91314 12.5239C5.81782 12.6712 5.62719 13.0194 5.48055 13.2939C5.3339 13.5684 5.16527 13.8898 5.10661 13.9969C4.9453 14.2915 4.76933 14.7803 4.80599 14.8205C4.82799 14.8339 4.80599 14.9276 4.762 15.0281C4.71801 15.1218 4.65202 15.3361 4.61536 15.5034C4.58603 15.6708 4.5347 15.8784 4.51271 15.9721C4.49071 16.0659 4.45404 16.26 4.42472 16.4073C4.35873 16.7488 4.35873 56.4936 4.42472 56.8484C4.63735 58.0335 4.84265 58.7567 5.09927 59.2588C5.46588 59.9753 5.5172 60.069 5.65651 60.2632C5.73716 60.377 5.86914 60.5912 5.95713 60.7519C6.04512 60.9059 6.19176 61.1001 6.28708 61.1871C6.3824 61.2675 6.46305 61.3679 6.46305 61.4014C6.46305 61.4416 6.52904 61.5085 6.60969 61.5554C6.69035 61.6023 6.75633 61.6692 6.75633 61.7027C6.75633 61.7362 7.07161 62.0442 7.46021 62.3857C8.3694 63.1891 8.43538 63.2427 8.48671 63.2427C8.5087 63.2427 8.74334 63.3833 9.01462 63.5641C9.54987 63.9122 9.71118 64.006 9.98247 64.1198C10.4517 64.314 10.6424 64.3809 11.1923 64.5483C11.5149 64.6487 11.8302 64.7492 11.8888 64.7693C11.9475 64.7894 12.0355 64.8161 12.0721 64.8228C12.1161 64.8295 12.1601 64.8429 12.1821 64.8496C12.3067 64.9032 13.0106 64.9902 13.2966 64.9835C13.4432 64.9835 13.5825 65.0036 13.5972 65.0304C13.6412 65.0907 59.3349 65.0706 59.5036 65.0103Z" fill="#03C7FC"/>
</g>
</g>
<defs>
<clipPath id="clip0_461_228">
<rect width="73" height="65" fill="white"/>
</clipPath>
</defs>
</svg>
