<svg width="18" height="18" viewBox="0 0 18 18" fill="none" xmlns="http://www.w3.org/2000/svg">
<g id="g+">
<path id="Vector" d="M15.4612 8.26871C15.4559 7.7941 15.4542 7.31597 15.4524 6.83961H14.0321C14.0268 7.31422 14.0233 7.79058 14.0198 8.26871C13.5417 8.27047 13.0671 8.27398 12.5925 8.27925V9.70133C13.0671 9.7066 13.5452 9.71011 14.0198 9.71539C14.0251 10.19 14.0251 10.6664 14.0286 11.141H15.4507C15.4524 10.6664 15.4559 10.19 15.4595 9.71187C15.9376 9.7066 16.4122 9.70484 16.8868 9.69957V8.2775C16.4139 8.27398 15.9358 8.27398 15.4612 8.26871ZM6.14481 8.27574C6.14305 8.84351 6.14481 9.41304 6.14656 9.98082C7.0993 10.0125 8.05379 9.99839 9.00652 10.0125C8.58641 12.1271 5.71238 12.8127 4.19188 11.431C2.62742 10.2199 2.70125 7.56382 4.32723 6.43882C5.46453 5.53179 7.07996 5.75504 8.21727 6.54078C8.66375 6.12769 9.08211 5.68472 9.48465 5.22769C8.53895 4.47359 7.37879 3.9357 6.14481 3.99195C3.56785 3.90582 1.20008 6.16285 1.15789 8.74156C0.992657 10.8492 2.37781 12.9146 4.3325 13.6599C6.28016 14.4105 8.77801 13.899 10.0225 12.1482C10.8434 11.0425 11.021 9.61871 10.9243 8.28101C9.32996 8.26871 7.73738 8.27047 6.14481 8.27574Z" fill="white"/>
</g>
</svg>
