<svg width="85" height="69" viewBox="0 0 85 69" fill="none" xmlns="http://www.w3.org/2000/svg">
<g id="GitHub logo" clip-path="url(#clip0_461_239)">
<path id="Vector" d="M0 34.5C0 24.9765 4.15039 16.8457 12.4512 10.1074C20.7519 3.36914 30.7682 0 42.5 0C54.2317 0 64.248 3.36914 72.5488 10.1074C80.8495 16.8457 85 24.9765 85 34.5C85 44.0234 80.8496 52.1542 72.5488 58.8925C64.2481 65.6308 54.2318 69 42.5 69C30.7682 69 20.7519 65.6309 12.4512 58.8925C4.15039 52.1543 0 44.0233 0 34.5ZM4.64843 34.5C4.64843 42.9453 8.35611 50.1777 15.7715 56.1973C23.1868 62.2167 32.0963 65.2266 42.5 65.2266C52.9037 65.2266 61.8132 62.2168 69.2285 56.1973C76.6439 50.1778 80.3516 42.9453 80.3516 34.5C80.3516 26.0547 76.644 18.8222 69.2285 12.8027C61.8132 6.7832 52.9036 3.77343 42.5 3.77343C32.0963 3.77343 23.1869 6.7832 15.7715 12.8027C8.35611 18.8222 4.64843 26.0547 4.64843 34.5ZM16.6016 41.9121C16.3803 41.7324 16.3803 41.5527 16.6016 41.373C17.0443 41.0136 17.5977 40.8789 18.2617 40.9687C18.9258 41.0586 19.3131 41.1484 19.4238 41.2382C20.1985 41.5078 21.0563 42.1142 21.997 43.0576C22.9377 44.001 23.6848 44.6523 24.2383 45.0117C26.8945 46.8085 29.606 46.9433 32.3729 45.416C32.5943 44.7871 32.954 44.248 33.452 43.7987C33.95 43.3495 34.4205 43.0351 34.8632 42.8554C35.306 42.6757 36.0807 42.4061 37.1875 42.0468C33.535 41.7772 30.5745 41.2606 28.3056 40.4969C26.0367 39.7333 24.2382 38.7675 22.91 37.5995C21.1392 35.9823 20.0601 33.871 19.6727 31.2655C19.2852 28.6601 19.5343 26.2792 20.4198 24.123C21.0839 22.7753 22.0246 21.5625 23.242 20.4843C22.3566 18.2382 22.5226 15.6777 23.74 12.8027C27.2817 12.9823 30.4913 13.9706 33.3689 15.7675C38.9028 14.5995 44.658 14.5546 50.6345 15.6327C51.4092 15.1835 52.599 14.622 54.2038 13.9481C55.8086 13.2743 57.8285 12.8924 60.2634 12.8026C60.7061 13.7909 61.0105 14.9588 61.1765 16.3065C61.3425 17.6541 61.2595 18.912 60.9275 20.0799C63.473 22.2362 64.8011 25.1112 64.9118 28.7049C64.9118 31.5799 64.3032 33.9608 63.0857 35.8475C61.8683 37.7342 59.7101 39.3065 56.6111 40.5642C54.5082 41.3729 51.7413 41.8669 48.3103 42.0466C49.8599 42.6755 50.9943 43.3269 51.7137 44.0008C52.4332 44.6746 52.9035 45.7302 53.125 47.1677V51.4129L53.2909 55.5232C53.6229 55.9725 54.0104 56.3543 54.4531 56.6689C54.8958 56.9833 55.2831 57.2079 55.6152 57.3427C55.9471 57.4774 56.0579 57.6796 55.9471 57.9492C55.8364 58.2187 55.3937 58.3535 54.6191 58.3535C52.7375 58.3535 51.2434 57.8144 50.1367 56.7362C49.8046 56.287 49.6386 55.748 49.6386 55.119V48.6503C49.6386 47.9315 49.4173 47.4149 48.9746 47.1004C48.5319 46.7859 48.0891 46.5838 47.6464 46.494V54.9842C47.6464 56.5115 47.8678 57.4998 48.3105 57.949C48.7532 58.3982 49.0299 58.8475 49.1407 59.2967C49.2513 59.3865 49.1683 59.4539 48.8916 59.4988C48.615 59.5436 48.1446 59.4764 47.4804 59.2967C46.0416 59.0271 45.0455 58.4207 44.4921 57.4773C43.9388 56.534 43.6621 55.5232 43.6621 54.445V46.0898H41.5039V54.4453C41.5039 55.5234 41.2271 56.5567 40.6737 57.5449C39.8991 58.8027 38.4602 59.4765 36.3574 59.5663C36.0254 59.4765 35.8593 59.3867 35.8593 59.2969C35.97 59.207 36.302 58.7578 36.8554 57.9492C36.9661 57.7695 37.1045 57.4102 37.2705 56.8711C37.4366 56.332 37.5196 55.7031 37.5196 54.9844V46.4941C37.0769 46.5839 36.6618 46.7861 36.2744 47.1006C35.8871 47.4151 35.6933 47.9317 35.6933 48.6504V55.1192C35.6933 55.748 35.5273 56.2871 35.1953 56.7363C34.1992 57.8145 32.705 58.3536 30.7129 58.3536C29.9382 58.3536 29.4955 58.2188 29.3848 57.9493C29.2741 57.7696 29.3018 57.6124 29.4679 57.4776C29.634 57.3428 29.883 57.1856 30.215 57.0059C30.547 56.8262 30.7684 56.6913 30.879 56.6016C31.3218 56.332 31.6537 55.9727 31.8751 55.5235C32.2072 55.1641 32.2901 54.2207 32.1241 52.6934C31.9581 51.166 31.9304 50.1778 32.0411 49.7285C29.1634 50.5371 26.2305 50.1328 23.2422 48.5156C22.3568 47.7969 21.4713 46.7636 20.5859 45.416C19.9219 44.4277 18.5937 43.2597 16.6016 41.9121Z" fill="white"/>
</g>
<defs>
<clipPath id="clip0_461_239">
<rect width="85" height="69" fill="white"/>
</clipPath>
</defs>
</svg>
