<svg width="18" height="18" viewBox="0 0 18 18" fill="none" xmlns="http://www.w3.org/2000/svg">
<g id="gram">
<path id="Vector" d="M9 6.75C8.40326 6.75 7.83097 6.98705 7.40901 7.40901C6.98705 7.83097 6.75 8.40326 6.75 9C6.75 9.59674 6.98705 10.169 7.40901 10.591C7.83097 11.0129 8.40326 11.25 9 11.25C9.59674 11.25 10.169 11.0129 10.591 10.591C11.0129 10.169 11.25 9.59674 11.25 9C11.25 8.40326 11.0129 7.83097 10.591 7.40901C10.169 6.98705 9.59674 6.75 9 6.75ZM9 5.25C9.99456 5.25 10.9484 5.64509 11.6517 6.34835C12.3549 7.05161 12.75 8.00544 12.75 9C12.75 9.99456 12.3549 10.9484 11.6517 11.6517C10.9484 12.3549 9.99456 12.75 9 12.75C8.00544 12.75 7.05161 12.3549 6.34835 11.6517C5.64509 10.9484 5.25 9.99456 5.25 9C5.25 8.00544 5.64509 7.05161 6.34835 6.34835C7.05161 5.64509 8.00544 5.25 9 5.25ZM13.875 5.0625C13.875 5.31114 13.7762 5.5496 13.6004 5.72541C13.4246 5.90123 13.1861 6 12.9375 6C12.6889 6 12.4504 5.90123 12.2746 5.72541C12.0988 5.5496 12 5.31114 12 5.0625C12 4.81386 12.0988 4.5754 12.2746 4.39959C12.4504 4.22377 12.6889 4.125 12.9375 4.125C13.1861 4.125 13.4246 4.22377 13.6004 4.39959C13.7762 4.5754 13.875 4.81386 13.875 5.0625ZM9 3C7.1445 3 6.8415 3.00525 5.97825 3.0435C5.39025 3.07125 4.99575 3.15 4.62975 3.2925C4.32346 3.40495 4.04656 3.5852 3.81975 3.81975C3.58501 4.04655 3.40451 4.32344 3.29175 4.62975C3.14925 4.99725 3.0705 5.391 3.0435 5.97825C3.0045 6.80625 2.99925 7.09575 2.99925 9C2.99925 10.8562 3.0045 11.1585 3.04275 12.0217C3.0705 12.609 3.14925 13.0043 3.291 13.3695C3.4185 13.6958 3.5685 13.9305 3.8175 14.1795C4.07025 14.4315 4.305 14.5822 4.6275 14.7067C4.998 14.85 5.3925 14.9295 5.9775 14.9565C6.8055 14.9955 7.095 15 8.99925 15C10.8555 15 11.1578 14.9948 12.021 14.9565C12.6075 14.9288 13.002 14.85 13.3688 14.7083C13.6748 14.5952 13.9515 14.4151 14.1788 14.181C14.4315 13.929 14.5823 13.6942 14.7068 13.371C14.8493 13.002 14.9288 12.6075 14.9557 12.021C14.9948 11.1937 14.9993 10.9035 14.9993 9C14.9993 7.1445 14.994 6.8415 14.9557 5.97825C14.928 5.39175 14.8485 4.99575 14.7068 4.62975C14.5937 4.32376 14.4135 4.04699 14.1795 3.81975C13.9528 3.58488 13.6759 3.40438 13.3695 3.29175C13.002 3.14925 12.6075 3.0705 12.021 3.0435C11.1937 3.0045 10.905 3 9 3ZM9 1.5C11.0378 1.5 11.292 1.5075 12.0923 1.545C12.8903 1.5825 13.4348 1.70775 13.9125 1.89375C14.4075 2.08425 14.8245 2.34225 15.2415 2.7585C15.6229 3.13342 15.918 3.58694 16.1063 4.0875C16.2915 4.56525 16.4175 5.10975 16.455 5.9085C16.4903 6.708 16.5 6.96225 16.5 9C16.5 11.0378 16.4925 11.292 16.455 12.0915C16.4175 12.8903 16.2915 13.434 16.1063 13.9125C15.9185 14.4133 15.6233 14.8669 15.2415 15.2415C14.8665 15.6227 14.413 15.9178 13.9125 16.1063C13.4348 16.2915 12.8903 16.4175 12.0923 16.455C11.292 16.4903 11.0378 16.5 9 16.5C6.96225 16.5 6.708 16.4925 5.90775 16.455C5.10975 16.4175 4.566 16.2915 4.0875 16.1063C3.58674 15.9184 3.13315 15.6232 2.7585 15.2415C2.37707 14.8666 2.08197 14.4131 1.89375 13.9125C1.70775 13.4347 1.5825 12.8903 1.545 12.0915C1.509 11.292 1.5 11.0378 1.5 9C1.5 6.96225 1.5075 6.708 1.545 5.9085C1.5825 5.109 1.70775 4.566 1.89375 4.0875C2.08143 3.58663 2.3766 3.13299 2.7585 2.7585C3.13325 2.37692 3.58682 2.0818 4.0875 1.89375C4.56525 1.70775 5.109 1.5825 5.90775 1.545C6.708 1.50975 6.96225 1.5 9 1.5Z" fill="white"/>
</g>
</svg>
