<svg width="79" height="57" viewBox="0 0 79 57" fill="none" xmlns="http://www.w3.org/2000/svg">
<g id="Group">
<g id="Group_2">
<path id="Vector" d="M78.2638 0H0V56.6908H78.2638V0Z" fill="white"/>
<path id="Vector_2" d="M74.4612 2.75806H3.82031V53.9271H74.4612V2.75806Z" fill="#FFCB05"/>
</g>
<g id="Group_3">
<path id="Vector_3" d="M72.2424 28.1952C72.2424 33.6574 57.4193 38.0849 39.1368 38.0849C20.8505 38.0849 6.02734 33.6574 6.02734 28.1952C6.02734 22.7331 20.8505 18.3083 39.1368 18.3083C57.4193 18.3083 72.2424 22.7331 72.2424 28.1952Z" fill="#00678F"/>
</g>
<g id="Group_4">
<path id="Vector_4" d="M17.9297 33.0762L21.3537 23.1865H26.8244V28.9463L30.4206 23.1865H36.0673L32.6472 33.0762H29.051L31.1015 26.6928L26.8244 33.0762H23.9208V26.6928L21.6903 33.0762H17.9297Z" fill="white"/>
<path id="Vector_5" d="M37.1758 33.201L37.6884 31.8234H41.6251L41.1085 33.201H37.1758Z" fill="#ED1D24"/>
<path id="Vector_6" d="M45.9844 33.0762L49.4045 23.1865H53.3412L55.0551 28.4474L56.9335 23.1865H60.5258L57.1057 33.0762H53.3412L51.4589 27.6934L49.5767 33.0762H45.9844Z" fill="white"/>
<path id="Vector_7" d="M37.1734 23.1865L36.3164 25.6923H39.9126L37.9756 31.1261H41.9083L43.8493 25.6923H47.4416L48.2947 23.1865H37.1734Z" fill="#FFCB05"/>
</g>
</g>
</svg>
