<svg width="53" height="47" viewBox="0 0 53 47" fill="none" xmlns="http://www.w3.org/2000/svg">
<g id="Group">
<path id="Vector" d="M51.5148 16.8232C51.5148 21.5639 49.2461 25.393 44.7189 28.3016C40.1916 31.2103 33.8654 32.6603 25.7304 32.6603H21.2331L17.7852 45.6407H5.90234L16.8757 5.80505H32.966C35.9642 5.80505 38.5726 5.98739 40.8112 6.34337C43.0399 6.69936 44.9687 7.31582 46.5877 8.19276C48.1868 9.0697 49.416 10.2071 50.2555 11.605C51.095 12.9942 51.5148 14.7394 51.5148 16.8232Z" fill="#009CDE"/>
<path id="Vector_2" d="M18.1834 46.0662H5.28125L16.4945 5.37097H32.9645C35.9727 5.37097 38.6411 5.55331 40.8897 5.90929C43.1683 6.27396 45.1671 6.91647 46.8361 7.81078C48.5051 8.72245 49.8043 9.92933 50.6838 11.388C51.5633 12.8467 52.003 14.67 52.003 16.8146C52.003 21.6769 49.6544 25.6622 45.0072 28.6403C40.41 31.5924 33.9239 33.0858 25.7189 33.0858H21.6114L18.1834 46.0662ZM6.53049 45.2153H17.3939L20.8418 32.2349H25.7289C33.7141 32.2349 40.0102 30.7936 44.4276 27.9544C46.6162 26.5478 48.2852 24.8981 49.3746 23.0574C50.4639 21.2167 51.0136 19.1155 51.0136 16.8233C51.0136 14.8176 50.6038 13.1245 49.8043 11.7874C49.0048 10.459 47.8355 9.37364 46.3164 8.54011C44.7574 7.6979 42.8685 7.09881 40.7098 6.7515C38.5211 6.4042 35.9127 6.22186 32.9545 6.22186H17.264L6.53049 45.2153Z" fill="white"/>
<path id="Vector_3" d="M46.2335 12.3865C46.2335 17.1272 43.9649 20.9562 39.4376 23.8649C34.9104 26.7735 28.5842 28.2235 20.4491 28.2235H15.9518L12.5039 41.204H0.621094L11.2047 1.35962H27.6847C30.6829 1.35962 33.2913 1.54195 35.53 1.89794C37.7586 2.25392 39.6875 2.87039 41.3065 3.74733C42.9055 4.62427 44.1348 5.76169 44.9743 7.15958C45.8138 8.5488 46.2335 10.294 46.2335 12.3865Z" fill="#0F3572"/>
<path id="Vector_4" d="M12.8922 41.6292H0L10.8035 0.93396H27.6833C30.6914 0.93396 33.3598 1.11629 35.6085 1.47228C37.8871 1.83695 39.8859 2.47946 41.5549 3.37377C43.2239 4.28544 44.5231 5.49232 45.4025 6.95099C46.282 8.40966 46.7217 10.233 46.7217 12.3776C46.7217 17.2398 44.3732 21.2252 39.726 24.2033C35.1287 27.1554 28.6427 28.6488 20.4376 28.6488H16.3301L12.8922 41.6292ZM1.23925 40.7696H12.1127L15.5606 27.7892H20.4476C28.4328 27.7892 34.729 26.3479 39.1463 23.5087C41.335 22.1021 43.004 20.4524 44.0933 18.6117C45.1827 16.771 45.7323 14.6698 45.7323 12.3776C45.7323 10.3719 45.3226 8.67882 44.5231 7.3417C43.7236 6.01327 42.5543 4.92795 41.0352 4.09442C39.4761 3.25221 37.5873 2.65311 35.4286 2.30581C33.2399 1.9585 30.6315 1.77617 27.6733 1.77617H11.583L1.23925 40.7696ZM34.0194 13.8015C33.9295 15.0171 33.6496 15.9114 32.7902 16.9446C31.9407 17.9779 30.9413 18.6464 29.6021 19.2021C28.7926 19.532 27.9531 19.7491 27.0736 19.8533C26.1942 19.9575 25.1448 20.0183 23.9155 20.0183H18.0091L21.3171 9.72073H26.6839C28.053 9.72073 29.1524 9.7381 29.9819 9.90307C30.8114 10.0594 31.491 10.2764 32.0006 10.5456C32.7102 10.9102 33.2799 11.3531 33.6097 11.9174C34.0194 12.5773 34.0694 13.0027 34.0194 13.8015Z" fill="white"/>
</g>
</svg>
