<svg width="18" height="18" viewBox="0 0 18 18" fill="none" xmlns="http://www.w3.org/2000/svg">
<g id="in">
<g id="evaLinkedinFill0">
<g id="evaLinkedinFill1">
<g id="evaLinkedinFill2">
<path id="Vector" d="M11.3641 6.29995C10.7892 6.29798 10.2196 6.40937 9.6879 6.62776C9.15617 6.84615 8.67271 7.16724 8.26519 7.57266C7.85767 7.97809 7.5341 8.45989 7.31298 8.9905C7.09187 9.52111 6.97755 10.0901 6.97656 10.665V15.075C6.97656 15.254 7.04768 15.4257 7.17427 15.5522C7.30085 15.6788 7.47254 15.75 7.65156 15.75H9.22656C9.40558 15.75 9.57727 15.6788 9.70386 15.5522C9.83045 15.4257 9.90156 15.254 9.90156 15.075V10.665C9.90141 10.4605 9.94436 10.2583 10.0276 10.0716C10.1108 9.88484 10.2325 9.71773 10.3846 9.58116C10.5368 9.44458 10.716 9.34161 10.9106 9.27894C11.1052 9.21627 11.3108 9.19532 11.5141 9.21745C11.8786 9.26336 12.2135 9.44145 12.4555 9.71794C12.6974 9.99442 12.8294 10.3501 12.8266 10.7175V15.075C12.8266 15.254 12.8977 15.4257 13.0243 15.5522C13.1509 15.6788 13.3225 15.75 13.5016 15.75H15.0766C15.2556 15.75 15.4273 15.6788 15.5539 15.5522C15.6804 15.4257 15.7516 15.254 15.7516 15.075V10.665C15.7506 10.0901 15.6363 9.52111 15.4151 8.9905C15.194 8.45989 14.8705 7.97809 14.4629 7.57266C14.0554 7.16724 13.572 6.84615 13.0402 6.62776C12.5085 6.40937 11.9389 6.29798 11.3641 6.29995Z" fill="white"/>
<path id="Vector_2" d="M4.95 6.97498H2.925C2.55221 6.97498 2.25 7.27718 2.25 7.64998V15.075C2.25 15.4478 2.55221 15.75 2.925 15.75H4.95C5.32279 15.75 5.625 15.4478 5.625 15.075V7.64998C5.625 7.27718 5.32279 6.97498 4.95 6.97498Z" fill="white"/>
<path id="Vector_3" d="M3.9375 5.625C4.86948 5.625 5.625 4.86948 5.625 3.9375C5.625 3.00552 4.86948 2.25 3.9375 2.25C3.00552 2.25 2.25 3.00552 2.25 3.9375C2.25 4.86948 3.00552 5.625 3.9375 5.625Z" fill="white"/>
</g>
</g>
</g>
</g>
</svg>
