<svg width="100" height="83" viewBox="0 0 100 83" fill="none" xmlns="http://www.w3.org/2000/svg">
<g id="libre-credit-card-mastercard logo">
<path id="Vector" d="M30.9862 28.8568H30.5027C29.337 28.8568 28.7542 29.1861 28.7542 29.8449C28.7542 30.2978 29.0022 30.5242 29.4982 30.5242C29.9196 30.5242 30.2669 30.3699 30.5399 30.0612C30.8127 29.7525 30.9615 29.3509 30.9862 28.8568ZM45.6811 27.7452H47.9877V27.6527C48.0115 27.5705 48.0187 27.5037 48.0091 27.4523C47.9949 27.4009 47.983 27.3288 47.9734 27.2359C47.9591 27.1434 47.9344 27.061 47.8991 26.9887C47.8611 26.9168 47.8053 26.8498 47.732 26.7877C47.6577 26.7261 47.5646 26.6747 47.4527 26.6336C47.3413 26.5925 47.1987 26.5719 47.0249 26.5719C46.3304 26.5719 45.8796 26.9629 45.6811 27.7452ZM65.7704 28.8568H65.324C64.1335 28.8568 63.5383 29.1861 63.5383 29.8449C63.5383 30.2978 63.7863 30.5242 64.2824 30.5242C64.7038 30.5242 65.051 30.3699 65.324 30.0612C65.5969 29.7525 65.7457 29.3509 65.7704 28.8568ZM77.638 28.0539C77.638 27.2099 77.266 26.7879 76.5219 26.7879C76.0505 26.7879 75.6661 26.9938 75.3686 27.4055C75.071 27.8172 74.9222 28.3421 74.9222 28.9803C74.9222 29.8449 75.2695 30.2771 75.9639 30.2771C76.4599 30.2771 76.863 30.0713 77.173 29.6596C77.483 29.2479 77.638 28.7127 77.638 28.0539ZM23.8806 23.7002H27.1172L25.4803 31.7902H23.3969L24.5874 25.5837L21.9461 31.7902H20.4952L20.3466 25.6146L19.0817 31.7902H17.1099L18.7469 23.7002H21.7603L21.8346 28.7332L23.8806 23.7002ZM33.2928 27.0041C33.2928 27.1274 33.2433 27.5597 33.1442 28.301C32.7476 30.3801 32.5368 31.5432 32.5121 31.7902H30.7636L30.7993 31.1109C30.3032 31.6461 29.584 31.9137 28.6416 31.9137C28.0711 31.9137 27.6061 31.7491 27.2464 31.4198C26.8869 31.0906 26.7071 30.6583 26.7071 30.1229C26.7071 29.3201 27.0296 28.6974 27.6744 28.2549C28.3193 27.8123 29.2246 27.591 30.3902 27.591C30.7374 27.591 31.0226 27.6009 31.2459 27.6206C31.2459 27.559 31.253 27.5024 31.2673 27.4511C31.2816 27.3997 31.2935 27.3534 31.303 27.3123C31.3173 27.2712 31.3244 27.2404 31.3244 27.2198C31.3244 26.8081 30.878 26.6023 29.9851 26.6023C29.2659 26.6023 28.5342 26.7052 27.7901 26.9111C27.7901 26.8289 27.8771 26.3349 28.0509 25.429C28.9933 25.2025 29.8242 25.0893 30.5434 25.0893C32.3788 25.0893 33.2928 25.7278 33.2928 27.0041ZM39.0964 25.2132L38.7985 26.7262C38.2529 26.6645 37.7445 26.6337 37.2732 26.6337C36.6036 26.6337 36.2688 26.8086 36.2688 27.1584C36.2688 27.3232 36.3245 27.4467 36.4359 27.5289C36.5474 27.6111 36.814 27.7243 37.2358 27.8686C38.2278 28.2599 38.7239 28.8775 38.7239 29.7213C38.7239 31.2034 37.645 31.9342 35.4873 31.9136C34.6441 31.9136 33.9248 31.852 33.3296 31.7286C33.3296 31.6875 33.4165 31.1832 33.5903 30.2157C34.3095 30.3805 34.942 30.4629 35.4876 30.4629C36.2812 30.4629 36.6781 30.2672 36.6781 29.876C36.6781 29.7317 36.6224 29.6133 36.5109 29.5208C36.3995 29.4284 36.1329 29.2997 35.7111 29.1349C34.6446 28.7232 34.1114 28.1159 34.1114 27.3131C34.1114 25.831 35.153 25.0899 37.2364 25.0899C37.9804 25.0899 38.6003 25.131 39.0964 25.2132ZM42.3701 25.2132H43.4119L43.1511 26.8188H42.0723C42.0228 27.1686 41.9421 27.5855 41.8301 28.0694C41.7187 28.5531 41.6318 28.9494 41.5694 29.2582C41.5075 29.5669 41.4766 29.7521 41.4766 29.8137C41.4766 30.1429 41.7123 30.3076 42.1837 30.3076C42.3823 30.3076 42.5806 30.287 42.7787 30.2459L42.4809 31.6972C41.96 31.8415 41.464 31.9136 40.9927 31.9136C39.9263 31.9136 39.3683 31.4299 39.3186 30.4624C39.3186 30.2153 39.4179 29.6389 39.6165 28.7332C39.6908 28.3215 40.0008 26.8188 40.5466 24.225H42.5927L42.3701 25.2132ZM49.9222 27.4672C49.9222 27.9407 49.8353 28.4759 49.6615 29.0729H45.532C45.4577 29.5258 45.5818 29.8654 45.9041 30.0919C46.2265 30.3184 46.6978 30.4316 47.3179 30.4316C48.0619 30.4316 48.7812 30.2875 49.4756 29.9994L49.1406 31.6668C48.3965 31.8316 47.6897 31.914 47.02 31.914C44.6639 31.914 43.4858 30.9362 43.4858 28.9806C43.4858 27.8484 43.8268 26.917 44.5089 26.1862C45.1909 25.4554 46.0528 25.09 47.0944 25.09C47.9625 25.09 48.6507 25.3062 49.1591 25.7385C49.6676 26.1707 49.9222 26.7468 49.9222 27.4672ZM55.0934 25.1823C54.771 25.6558 54.4982 26.2939 54.2749 27.0967C53.7293 27.0556 53.3448 27.3026 53.1216 27.8378C52.8983 28.373 52.5883 29.6905 52.1916 31.7902H50.1083L50.2197 31.358C50.7653 28.6819 51.125 26.6337 51.2986 25.2133H53.1959L53.0845 26.2323C53.4316 25.8 53.7479 25.4963 54.0331 25.3213C54.3184 25.1462 54.6717 25.0997 55.0934 25.1823ZM62.0502 23.9163L61.7152 25.6763C61.0208 25.3882 60.4008 25.2441 59.8551 25.2441C59.0863 25.2441 58.4538 25.5272 57.9578 26.0933C57.4618 26.6594 57.2138 27.385 57.2138 28.2702C57.2138 28.8878 57.3812 29.3715 57.7159 29.7215C58.0507 30.0712 58.5281 30.2461 59.1482 30.2461C59.6691 30.2461 60.2643 30.1124 60.9339 29.8448L60.5618 31.6666C59.8673 31.8314 59.2473 31.9138 58.7017 31.9138C57.5856 31.9138 56.6989 31.5999 56.0416 30.972C55.3844 30.3442 55.0558 29.4951 55.0558 28.4246C55.0558 26.9836 55.496 25.8051 56.3765 24.8891C57.257 23.973 58.3916 23.515 59.7805 23.515C60.4254 23.515 61.1822 23.6487 62.0502 23.9163ZM68.077 27.0041C68.077 27.3744 68.0275 27.8067 67.9284 28.301C67.6061 29.9272 67.3953 31.0903 67.2963 31.7902H65.585L65.6207 31.1109C65.1247 31.6461 64.393 31.9137 63.4258 31.9137C62.8554 31.9137 62.3965 31.7491 62.0493 31.4198C61.7021 31.0906 61.5286 30.6583 61.5286 30.1229C61.5286 29.3201 61.8448 28.6974 62.4773 28.2549C63.1097 27.8123 64.0088 27.591 65.1744 27.591C65.5463 27.591 65.8316 27.6009 66.0301 27.6206C66.0796 27.4764 66.1044 27.3426 66.1044 27.2192C66.1044 26.8075 65.6579 26.6017 64.7651 26.6017C64.0458 26.6017 63.3142 26.7046 62.5701 26.9105C62.5701 26.8283 62.6694 26.3343 62.868 25.4284C63.8105 25.2019 64.6413 25.0887 65.3606 25.0887C67.1711 25.0887 68.077 25.7278 68.077 27.0041ZM73.3226 25.1823C72.9754 25.6764 72.715 26.3145 72.5413 27.0967C71.9709 27.0556 71.5802 27.2923 71.3694 27.8069C71.1585 28.3215 70.8423 29.6493 70.4208 31.7902H68.3374L68.4489 31.358C68.9203 29.2171 69.2799 27.1689 69.5277 25.2133H71.4623C71.4623 25.4398 71.4128 25.7794 71.3137 26.2323C71.6856 25.8 72.0142 25.4963 72.2996 25.3213C72.5848 25.1462 72.9258 25.0997 73.3226 25.1823ZM78.5681 23.7002H80.6514L79.0517 31.7902H77.08L77.1914 31.2032C76.621 31.6767 75.9762 31.9134 75.2569 31.9134C74.4881 31.9134 73.8742 31.6664 73.4154 31.1724C72.9564 30.6783 72.7269 30.0196 72.7269 29.1962C72.7269 28.1052 73.0679 27.1582 73.7499 26.3554C74.432 25.5526 75.2318 25.1512 76.1495 25.1512C76.9184 25.1512 77.5756 25.4497 78.1212 26.0466L78.5681 23.7002ZM82.6975 27.7143C82.6975 24.6677 81.7985 21.8578 80.0004 19.2846C78.2023 16.7114 75.7469 14.6735 72.6343 13.1707C69.5217 11.668 66.1301 10.9167 62.4594 10.9167C57.9703 10.9167 53.9029 12.0489 50.2571 14.3132C53.4069 16.7011 55.5274 19.6243 56.6186 23.0826H54.7586C53.6673 19.9948 51.708 17.3907 48.8806 15.2705C46.0532 17.3907 44.0939 19.9948 43.0026 23.0826H41.1425C42.2337 19.6243 44.3543 16.7011 47.5041 14.3132C43.8583 12.0489 39.7908 10.9167 35.3017 10.9167C31.6311 10.9167 28.2395 11.668 25.1269 13.1707C22.0142 14.6735 19.5589 16.7114 17.7608 19.2846C15.9627 21.8578 15.0637 24.6677 15.0637 27.7143C15.0637 30.7609 15.9627 33.5708 17.7608 36.144C19.5589 38.7172 22.0142 40.7551 25.1269 42.2578C28.2395 43.7605 31.6311 44.5119 35.3017 44.5119C39.7908 44.5119 43.8583 43.3797 47.5041 41.1153C44.5279 38.8304 42.4818 36.1131 41.3657 32.9636H43.2258C44.3667 35.8043 46.2516 38.2025 48.8806 40.1581C51.5095 38.2025 53.3945 35.8043 54.5354 32.9636H56.3954C55.2794 36.1131 53.2333 38.8304 50.2571 41.1153C53.9029 43.3797 57.9703 44.5119 62.4594 44.5119C66.1301 44.5119 69.5217 43.7605 72.6343 42.2578C75.7469 40.7551 78.2023 38.7172 80.0004 36.144C81.7985 33.5708 82.6975 30.7609 82.6975 27.7143ZM91.7377 7.9524V47.4762C91.7377 48.5466 91.2665 49.473 90.324 50.2552C89.3816 51.0374 88.2655 51.4286 86.9758 51.4286H10.7853C9.49566 51.4286 8.37959 51.0374 7.43713 50.2552C6.49467 49.473 6.02344 48.5466 6.02344 47.4762V7.9524C6.02344 6.88194 6.49467 5.9556 7.43713 5.17338C8.37959 4.39113 9.49566 4 10.7853 4H86.9758C88.2655 4 89.3816 4.39113 90.324 5.17338C91.2665 5.9556 91.7377 6.88194 91.7377 7.9524Z" fill="white"/>
</g>
</svg>
