<svg width="39" height="63" viewBox="0 0 39 63" fill="none" xmlns="http://www.w3.org/2000/svg">
<g id="netflix logo" clip-path="url(#clip0_461_213)">
<path id="Vector" d="M24.9456 3.5L24.9181 17.1051L24.8904 30.7102L23.6033 27.5519C23.6028 27.5508 23.6012 27.5468 23.6008 27.5457L21.9375 57.8343C23.5728 61.8503 24.449 63.9942 24.4589 64.0028C24.4717 64.014 25.4037 64.0629 26.5299 64.1115C29.942 64.2587 34.1702 64.5742 37.3778 64.9208C38.1204 65.001 38.7596 65.0421 38.7981 65.0122C38.8365 64.9822 38.8575 51.1297 38.8446 34.2288L38.8212 3.5H31.8834L24.9456 3.5Z" fill="#B1060F"/>
<path id="Vector_2" d="M0 3.5V34.2599C0 51.1779 0.0190362 65.0366 0.0423428 65.0568C0.0656478 65.0771 1.27045 64.9782 2.71968 64.837C4.16891 64.6959 6.17185 64.5204 7.17062 64.4471C8.70241 64.3346 13.2759 64.0789 13.8055 64.0761C13.9595 64.0752 13.9694 63.384 13.9917 51.0474L14.0153 38.0197L15.1219 40.7424C15.2929 41.1632 15.3465 41.2946 15.5132 41.7045L17.176 11.4234C16.8237 10.5571 17.0084 11.0119 16.6046 10.0191C15.246 6.67858 14.093 3.84519 14.0425 3.7227L13.9505 3.5H6.97535H0Z" fill="#B1060F"/>
<path id="Vector_3" d="M0 2.5L3.725e-06 19.7664L13.9871 52.0315C13.9885 51.2921 13.9902 50.8926 13.9917 50.0474L14.0153 37.0197L15.1219 39.7424C21.2816 54.8995 24.591 63.0264 24.6104 63.0433C24.6233 63.0545 25.5553 63.1034 26.6815 63.152C30.0935 63.2992 34.3218 63.6147 37.5293 63.9613C38.272 64.0415 38.9112 64.0826 38.9496 64.0527C38.9761 64.0321 38.9934 57.2399 38.998 47.6579L25.0764 12.8519L25.0697 16.1456L25.042 29.7507L23.7549 26.5924C22.4972 23.5064 21.6574 21.4425 16.6046 9.01912C15.246 5.67858 14.093 2.84519 14.0425 2.7227L13.9505 2.5H6.97535H0Z" fill="url(#paint0_radial_461_213)"/>
<path id="Vector_4" d="M14.015 38.0354V38.0197L15.1216 40.7424C21.2813 55.8995 24.5907 64.0264 24.6101 64.0433C24.623 64.0545 25.555 64.1034 26.6812 64.152C30.0932 64.2992 34.3215 64.6147 37.529 64.9613C38.2679 65.0411 38.7121 65.0665 38.7565 65.0374L25.0417 30.7444V30.7507L23.7546 27.5924C22.4969 24.5064 21.6571 22.4425 16.6043 10.0191C15.2457 6.67858 14.0928 3.84519 14.0422 3.7227L13.9503 3.5H6.97506H0L14.015 38.0354Z" fill="#E50914"/>
<path id="Vector_5" d="M24.9181 17.1051L24.8904 30.7102L23.6033 27.5519L23.6008 27.5457L21.9375 57.8343C23.5728 61.8503 24.449 63.9942 24.4589 64.0028C24.4717 64.014 25.4037 64.0629 26.5299 64.1115C29.942 64.2587 34.1702 64.5742 37.3778 64.9208C38.1204 65.001 38.7596 65.0421 38.7981 65.0122C38.8365 64.9822 38.8575 51.1297 38.8446 34.2288L38.8212 3.5H31.8834H24.9456L24.9181 17.1051Z" fill="#B1060F"/>
<path id="Vector_6" d="M0 3.5V34.2599C0 51.1779 0.0190362 65.0366 0.0423428 65.0568C0.0656478 65.0771 1.27045 64.9782 2.71968 64.837C4.16891 64.6959 6.17185 64.5204 7.17062 64.4471C8.70241 64.3346 13.2759 64.0789 13.8055 64.0761C13.9595 64.0752 13.9694 63.384 13.9917 51.0474L14.0153 38.0197L15.1219 40.7424C15.2929 41.1632 15.3465 41.2946 15.5132 41.7045L17.176 11.4234C16.8237 10.5571 17.0084 11.0119 16.6046 10.0191C15.246 6.67858 14.093 3.84519 14.0425 3.7227L13.9505 3.5H6.97535H0Z" fill="#B1060F"/>
<path id="Vector_7" d="M3.725e-06 20.7664L13.9871 53.0315C13.9885 52.2921 13.9902 51.8926 13.9917 51.0474L14.0153 38.0197L15.1219 40.7424C21.2816 55.8995 24.591 64.0264 24.6104 64.0433C24.6233 64.0545 25.5553 64.1034 26.6815 64.152C30.0935 64.2992 34.3218 64.6147 37.5293 64.9613C38.272 65.0415 38.5252 65.0341 38.5637 65.0042C38.5902 64.9836 38.9934 58.2399 38.998 48.6579L25.0764 13.8519L25.0697 17.1456L25.042 30.7507L23.7549 27.5924C22.4972 24.5064 21.6574 22.4425 16.6046 10.0191C15.246 6.67858 14.093 3.84519 14.0425 3.7227L13.9505 3.5H6.97535H0L3.725e-06 20.7664Z" fill="url(#paint1_radial_461_213)"/>
<path id="Vector_8" d="M14.015 38.0354V38.0197L15.1216 40.7424C21.2813 55.8995 24.3555 64.0431 24.375 64.06C24.3879 64.0712 25.555 64.1034 26.6812 64.152C30.0932 64.2992 34.3215 64.6147 37.529 64.9613C38.2679 65.0411 38.7121 65.0665 38.7565 65.0374L25.0417 30.7444V30.7507L23.7546 27.5924C22.4969 24.5064 21.6571 22.4425 16.6043 10.0191C15.2457 6.67858 14.0928 3.84519 14.0422 3.7227L13.9503 3.5H6.97506H0L14.015 38.0354Z" fill="#E50914"/>
</g>
<defs>
<radialGradient id="paint0_radial_461_213" cx="0" cy="0" r="1" gradientUnits="userSpaceOnUse" gradientTransform="translate(3046.77 1210.72) rotate(-8.89482) scale(845.425 768.279)">
<stop/>
<stop offset="1" stop-opacity="0"/>
</radialGradient>
<radialGradient id="paint1_radial_461_213" cx="0" cy="0" r="1" gradientUnits="userSpaceOnUse" gradientTransform="translate(3045.44 1211.81) rotate(-8.89482) scale(845.425 768.168)">
<stop/>
<stop offset="1" stop-opacity="0"/>
</radialGradient>
<clipPath id="clip0_461_213">
<rect width="39" height="62" fill="white" transform="translate(0 0.5)"/>
</clipPath>
</defs>
</svg>
