<svg width="86" height="45" viewBox="0 0 86 45" fill="none" xmlns="http://www.w3.org/2000/svg">
<g id="visa logo" clip-path="url(#clip0_461_252)">
<path id="Vector" d="M86 0H0V45H86V0Z" fill="#0E4595"/>
<path id="Vector_2" d="M32.3282 31.3857L36.0065 13.7673H41.8898L38.2089 31.3857H32.3282ZM59.4634 14.1471C58.298 13.7901 56.4714 13.4071 54.1907 13.4071C48.3775 13.4071 44.2826 15.7966 44.2478 19.2214C44.2149 21.7531 47.1712 23.1654 49.4025 24.0081C51.6927 24.8717 52.4624 25.4224 52.4516 26.1936C52.4371 27.3745 50.6228 27.914 48.932 27.914C46.5772 27.914 45.3262 27.647 43.3941 26.9892L42.636 26.7093L41.8103 30.6534C43.1844 31.1451 45.7255 31.5712 48.3637 31.5932C54.548 31.5932 58.5624 29.2311 58.6083 25.5738C58.6302 23.5696 57.0629 22.0444 53.6687 20.7869C51.6124 19.972 50.3531 19.428 50.3664 18.6028C50.3664 17.8705 51.4324 17.0873 53.7355 17.0873C55.6594 17.063 57.0531 17.4054 58.1389 17.7623L58.6661 17.9657L59.4634 14.1471ZM74.6027 13.767H70.0566C68.6483 13.767 67.5944 14.0808 66.976 15.2281L58.2388 31.3741H64.4166C64.4166 31.3741 65.4265 29.203 65.655 28.7265C66.3303 28.7265 72.3316 28.734 73.1897 28.734C73.3657 29.3508 73.9053 31.3741 73.9053 31.3741H79.3645L74.6027 13.7665V13.767ZM67.39 25.1439C67.8764 24.1288 69.734 20.2188 69.734 20.2188C69.6992 20.2658 70.2168 19.1988 70.514 18.5373L70.9115 20.0564C70.9115 20.0564 72.0382 24.262 72.2736 25.1439H67.39ZM27.3338 13.767L21.574 25.782L20.9602 23.3403C19.888 20.5257 16.5472 17.4764 12.8125 15.9497L18.079 31.3577L24.3036 31.3519L33.5656 13.7668H27.3338" fill="white"/>
<path id="Vector_3" d="M16.1984 13.7664H6.7118L6.63672 14.1329C14.0171 15.5913 18.9005 19.1156 20.9282 23.3498L18.8653 15.2534C18.5091 14.1379 17.4764 13.805 16.1986 13.766" fill="#F2AE14"/>
</g>
<defs>
<clipPath id="clip0_461_252">
<rect width="86" height="45" fill="white"/>
</clipPath>
</defs>
</svg>
